<?xml version="1.0" standalone="no"?>
<!DOCTYPE svg PUBLIC "-//W3C//DTD SVG 20010904//EN"
 "http://www.w3.org/TR/2001/REC-SVG-20010904/DTD/svg10.dtd">
<svg version="1.0" xmlns="http://www.w3.org/2000/svg"
 width="1000.000000pt" height="1000.000000pt" viewBox="0 0 1000.000000 1000.000000"
 preserveAspectRatio="xMidYMid meet">
<metadata>
Created by potrace 1.14, written by Peter Selinger 2001-2017
</metadata>
<g transform="translate(0.000000,1000.000000) scale(0.100000,-0.100000)"
fill="#000000" stroke="none">
<path d="M4750 9089 c-543 -32 -1090 -179 -1574 -421 -483 -242 -898 -560
-1248 -958 -923 -1047 -1248 -2470 -873 -3820 170 -612 495 -1192 940 -1674
333 -361 727 -657 1174 -880 793 -398 1682 -524 2571 -365 425 75 889 243
1273 460 451 254 894 637 1215 1047 98 125 267 378 341 508 575 1019 685 2249
301 3359 -303 876 -916 1643 -1710 2137 -717 447 -1555 658 -2410 607z m605
-689 c802 -92 1498 -426 2059 -986 563 -563 902 -1276 987 -2075 7 -63 12
-220 13 -349 0 -263 -16 -432 -65 -671 -174 -865 -694 -1646 -1429 -2145 -473
-321 -985 -508 -1575 -576 -165 -19 -570 -16 -740 6 -981 124 -1819 623 -2395
1426 -630 878 -797 2049 -441 3082 376 1089 1285 1924 2401 2203 202 51 356
75 640 99 76 7 450 -3 545 -14z"/>
<path d="M4735 7719 c-1181 -120 -2149 -979 -2404 -2134 -37 -166 -52 -299
-58 -500 -9 -306 20 -548 98 -823 77 -275 194 -528 355 -773 83 -126 86 -130
107 -116 12 8 276 168 587 357 311 188 567 344 569 346 2 2 -16 25 -39 51 -79
89 -170 243 -226 380 -9 21 -22 14 -304 -157 -256 -155 -297 -177 -307 -163
-21 27 -100 284 -122 393 -60 308 -52 630 25 920 177 671 671 1202 1332 1429
518 179 1101 134 1595 -122 l118 -61 249 249 249 249 -77 49 c-334 214 -718
357 -1109 413 -129 18 -512 26 -638 13z"/>
<path d="M6600 6279 c-316 -192 -577 -354 -578 -360 -2 -5 11 -26 30 -47 71
-78 173 -249 213 -354 10 -27 19 -48 20 -48 2 0 133 79 291 175 159 96 291
175 295 175 13 0 82 -198 116 -330 99 -391 80 -814 -54 -1185 -106 -297 -263
-544 -482 -763 -333 -334 -759 -540 -1221 -593 -149 -17 -454 -7 -593 20 -241
46 -504 143 -670 248 l-40 25 -243 -243 -243 -243 97 -63 c415 -268 954 -423
1467 -423 720 0 1410 288 1924 801 418 418 674 925 773 1530 29 176 31 600 5
772 -52 339 -154 647 -304 923 -74 134 -204 334 -218 333 -5 0 -269 -158 -585
-350z"/>
<path d="M4854 5665 c-461 -100 -681 -632 -426 -1033 152 -241 460 -363 736
-292 305 78 515 348 516 662 0 251 -148 492 -372 601 -150 73 -305 95 -454 62z"/>
</g>
</svg>
