<?xml version="1.0" encoding="UTF-8" standalone="no"?>
<!DOCTYPE svg PUBLIC "-//W3C//DTD SVG 1.1//EN" "http://www.w3.org/Graphics/SVG/1.1/DTD/svg11.dtd"><svg width="100%"
    height="100%" viewBox="0 0 503 500" version="1.1" xmlns="http://www.w3.org/2000/svg"
    xmlns:xlink="http://www.w3.org/1999/xlink" xml:space="preserve" xmlns:serif="http://www.serif.com/"
    style="fill-rule:evenodd;clip-rule:evenodd;stroke-linejoin:round;stroke-miterlimit:2;">
    <path id="SweetSpot-Logo-Mark"
        d="M29.952,365.609c-18.086,-34.582 -28.318,-73.91 -28.318,-115.609c0,-137.979 112.022,-250 250,-250c58.383,-0 112.118,20.056 154.686,53.648c7.734,6.103 15.099,12.652 22.056,19.61c6.958,6.957 13.508,14.323 19.611,22.056c2.967,3.76 5.828,7.607 8.58,11.537c6.184,8.833 11.812,18.083 16.832,27.699c18.036,34.544 28.235,73.815 28.235,115.45c0,137.979 -112.021,250 -250,250c-58.382,-0 -112.117,-20.056 -154.685,-53.648c-7.734,-6.103 -15.099,-12.652 -22.057,-19.61c-6.957,-6.957 -13.507,-14.323 -19.61,-22.056c-2.93,-3.713 -5.757,-7.512 -8.477,-11.39c-6.191,-8.828 -11.825,-18.074 -16.853,-27.687Zm35.715,-21.662c4.908,9.687 10.55,18.94 16.854,27.686c0.811,1.124 1.633,2.241 2.465,3.349c5.927,7.886 12.4,15.34 19.363,22.303c6.964,6.963 14.417,13.436 22.304,19.363c34.826,26.17 78.106,41.685 124.981,41.685c114.983,0 208.334,-93.351 208.334,-208.333c-0,-33.727 -8.032,-65.592 -22.285,-93.786c-4.9,-9.692 -10.534,-18.95 -16.83,-27.701c-0.845,-1.174 -1.702,-2.339 -2.57,-3.495c-5.927,-7.886 -12.4,-15.34 -19.364,-22.303c-6.963,-6.963 -14.416,-13.436 -22.303,-19.363c-34.826,-26.17 -78.106,-41.685 -124.982,-41.685c-114.982,-0 -208.333,93.351 -208.333,208.333c0,33.79 8.062,65.713 22.366,93.947Zm35.759,-21.69c-10.546,-21.864 -16.458,-46.375 -16.458,-72.257c-0,-91.986 74.681,-166.667 166.666,-166.667c35.361,0 68.165,11.036 95.152,29.849l-30.583,30.583c-18.85,-11.404 -40.949,-17.969 -64.569,-17.969c-68.989,-0 -125,56.01 -125,125c0,17.728 3.699,34.6 10.366,49.884l36.357,-22.051c0.704,1.922 1.477,3.812 2.316,5.666c3.672,8.112 8.606,15.533 14.55,22.012l-71.94,43.635c-1.183,-1.576 -2.339,-3.173 -3.467,-4.791c-5.043,-7.234 -9.527,-14.886 -13.39,-22.894Zm287.026,-167.408c5.077,7.283 9.588,14.99 13.468,23.056c10.498,21.823 16.381,46.277 16.381,72.095c0,91.986 -74.681,166.667 -166.667,166.667c-35.36,-0 -68.164,-11.036 -95.151,-29.849l29.595,-29.595c19.064,11.775 41.523,18.573 65.556,18.573c68.99,-0 125,-56.011 125,-125c0,-18.151 -3.877,-35.404 -10.847,-50.975l-35.813,21.722c-0.72,-1.982 -1.515,-3.929 -2.378,-5.838c-3.647,-8.056 -8.538,-15.43 -14.427,-21.878l71.925,-43.625c1.145,1.529 2.265,3.078 3.358,4.647Zm-178.484,95.151c-0,-22.996 18.67,-41.667 41.666,-41.667c9.15,0 17.614,2.956 24.491,7.963c1.765,1.286 3.426,2.706 4.966,4.247c6.216,6.216 10.479,14.384 11.787,23.5c0.279,1.946 0.423,3.935 0.423,5.957c0,22.996 -18.67,41.667 -41.667,41.667c-9.079,-0 -17.485,-2.911 -24.333,-7.849c-1.824,-1.315 -3.537,-2.775 -5.124,-4.361c-6.172,-6.172 -10.418,-14.269 -11.758,-23.308c-0.297,-2.007 -0.451,-4.06 -0.451,-6.149Z" />
</svg>